<svg class="icon" width="200" height="50" viewBox="0 0 4096 1024" xmlns="http://www.w3.org/2000/svg"><path d="M1081.536 723.584c74.656 27.296 230.368 54.432 356.288 54.432 135.68 0 211.2-37.568 217.248-95.872 5.504-53.184-50.048-60.384-203.264-96.672-211.712-51.904-346.784-132.256-333.536-260.672 15.392-149.088 214.912-261.76 521.056-261.76 149.248 0 293.952 10.528 368.928 35.104l-25.728 188c-48.672-16.928-234.976-40.448-360.992-40.448-127.776 0-193.92 40.192-198.496 84.256-5.76 55.776 60.64 58.368 226.624 102.56 224.768 57.024 323.04 137.312 310.176 261.792-15.072 146.432-194.592 270.944-553.056 270.944-149.216 0-277.824-27.232-348.672-54.464l23.392-187.168zm2106.4-613.792c816.16-153.888 886.592 122.624 861.376 367.296l-47.52 452.64H3742.72l43.36-412.832c9.376-90.912 67.744-268.736-214.048-262.08-97.536 2.368-145.888 15.744-145.888 15.744s-8.48 109.856-18.752 191.04l-49.12 468.128h-254.08l50.432-461.376 33.312-358.56zM2157.088 88.384c58.24-6.336 147.712-12.768 270.848-12.768 205.568 0 371.776 35.776 474.688 111.008 92.416 70.144 153.92 183.712 136.896 348.256-15.712 153.12-95.328 260.32-211.232 326.624-106.048 62.528-239.68 89.248-440.64 89.248-118.496 0-231.52-6.4-317.472-19.136l86.944-843.232zM2326.944 764c19.808 3.84 45.856 7.648 97.216 7.648 205.632 0 350.624-101.056 365.184-243.136 21.152-205.376-107.456-277.184-324.128-275.936-28.064 0-67.072 0-87.712 3.776l-50.592 507.616z" fill="#262626"/><path d="M934.176 936.8c-48.736 16.896-149.696 28.416-290.752 28.416-405.632 0-624.576-190.4-598.688-442.112C75.712 223.2 400.064 54.464 755.2 54.464c137.536 0 218.528 11.072 294.4 29.632l-24.352 202.048c-50.464-16.992-168.736-32.608-264.48-32.608-208.96 0-386.432 62.24-406.784 259.136-18.144 176.064 106.432 260.224 341.504 260.224 81.824 0 202.464-11.712 258.24-28.64L934.176 936.8z" fill="#CA0C16"/></svg>