<?xml version="1.0" encoding="UTF-8"?>
<svg width="171px" height="42px" viewBox="0 0 171 42" version="1.1" xmlns="http://www.w3.org/2000/svg" xmlns:xlink="http://www.w3.org/1999/xlink">
    <!-- Generator: Sketch 54.1 (76490) - https://sketchapp.com -->
    <title>logo_osc</title>
    <desc>Created with Sketch.</desc>
    <g id="Page-1" stroke="none" stroke-width="1" fill="none" fill-rule="evenodd">
        <g id="Artboard" transform="translate(-175.000000, -59.000000)">
            <g id="logo_osc" transform="translate(176.000000, 60.000000)">
                <g id="C">
                    <path d="M19.6583746,27.4929577 C15.5167834,27.5211268 12.1411029,24.8169014 11.9141664,19.7746479 C11.6872299,15.0704225 15.8288211,11.915493 19.7718429,11.8309859 C24.310573,11.7183099 27.033811,16.9014085 27.033811,16.9014085 L38.749408,12.5915493 C38.749408,12.5915493 33.9270073,0.112676056 20.8781583,0.112676056 C8.68032127,0.112676056 0.255303567,8.56338028 0.255303567,20.028169 C0.255303567,30.2253521 8.1980812,40.3943662 20.5944877,39.943662 C34.2106779,39.4366197 38.8628763,27.4647887 38.8628763,27.4647887 L26.8352416,23.4929577 C26.8636086,23.4366197 24.3956741,27.4929577 19.6583746,27.4929577" id="Path" fill="#3DAB53"></path>
                    <path d="M19.6583746,27.4929577 C15.5167834,27.5211268 12.1411029,24.8169014 11.9141664,19.7746479 C11.6872299,15.0704225 15.8288211,11.915493 19.7718429,11.8309859 C24.310573,11.7183099 27.033811,16.9014085 27.033811,16.9014085 L38.749408,12.5915493 C38.749408,12.5915493 33.9270073,0.112676056 20.8781583,0.112676056 C8.68032127,0.112676056 0.255303567,8.56338028 0.255303567,20.028169 C0.255303567,30.2253521 8.1980812,40.3943662 20.5944877,39.943662 C34.2106779,39.4366197 38.8628763,27.4647887 38.8628763,27.4647887 L26.8352416,23.4929577 C26.8636086,23.4366197 24.3956741,27.4929577 19.6583746,27.4929577" id="Path" stroke="#006838" stroke-width="1.41255407"></path>
                </g>
                <path d="M57.2948905,26.875 C61.0956204,26.875 62.9211679,23.6467391 62.9211679,20 C62.9211679,16.3831522 61.0357664,13.125 57.2948905,13.125 C53.5540146,13.125 51.6686131,16.3831522 51.6686131,20 C51.6686131,23.6467391 53.4941606,26.875 57.2948905,26.875 Z M57.2948905,31 C51.219708,31 47,26.1875 47,20 C47,13.7826087 51.189781,9 57.2948905,9 C63.310219,9 67.589781,13.9320652 67.589781,20 C67.589781,26.1875 63.429927,31 57.2948905,31 Z M76.1788321,9 C77.8547445,9 82.0445255,9.62771739 82.0445255,11.9891304 C82.0445255,13.1548913 81.2664234,14.201087 80.0394161,14.201087 C78.8124088,14.201087 77.8547445,13.3043478 76.0591241,13.3043478 C74.7722628,13.3043478 73.6051095,13.9918478 73.6051095,15.2472826 C73.6051095,18.326087 83.6007299,16.3532609 83.6007299,24.0652174 C83.6007299,28.3396739 80.0693431,31 75.9394161,31 C73.6350365,31 68.6671533,30.4619565 68.6671533,27.6521739 C68.6671533,26.486413 69.4452555,25.5298913 70.6722628,25.5298913 C72.0788321,25.5298913 73.7547445,26.6956522 75.7,26.6956522 C77.6751825,26.6956522 78.7525547,25.5896739 78.7525547,24.125 C78.7525547,20.5978261 68.7569343,22.7201087 68.7569343,15.7853261 C68.7569343,11.6005435 72.1985401,9 76.1788321,9 Z M84.6781022,20 C84.6781022,13.7826087 88.8678832,9 94.9729927,9 C97.1576642,9 101.407299,9.7173913 101.407299,12.3478261 C101.407299,13.423913 100.659124,14.3505435 99.5518248,14.3505435 C98.3248175,14.3505435 97.4868613,13.3043478 94.9729927,13.3043478 C91.2620438,13.3043478 89.3467153,16.4429348 89.3467153,20.0896739 C89.3467153,23.6467391 91.2919708,26.6956522 94.9729927,26.6956522 C97.4868613,26.6956522 98.5043796,25.4402174 99.7313869,25.4402174 C101.078102,25.4402174 101.706569,26.7853261 101.706569,27.4728261 C101.706569,30.3423913 97.1875912,31 94.9729927,31 C88.8978102,31 84.6781022,26.1875 84.6781022,20 Z M103.80146,28.4891304 L103.80146,11.5108696 C103.80146,10.0163043 104.759124,9.17934783 106.045985,9.17934783 C107.332847,9.17934783 108.290511,10.0163043 108.290511,11.5108696 L108.290511,17.8478261 L117.687591,17.8478261 L117.687591,11.5108696 C117.687591,10.0163043 118.645255,9.17934783 119.932117,9.17934783 C121.218978,9.17934783 122.176642,10.0163043 122.176642,11.5108696 L122.176642,28.4891304 C122.176642,29.9836957 121.218978,30.8206522 119.932117,30.8206522 C118.645255,30.8206522 117.687591,29.9836957 117.687591,28.4891304 L117.687591,21.9728261 L108.290511,21.9728261 L108.290511,28.4891304 C108.290511,29.9836957 107.332847,30.8206522 106.045985,30.8206522 C104.759124,30.8206522 103.80146,29.9836957 103.80146,28.4891304 Z M124.870073,28.4891304 L124.870073,11.5108696 C124.870073,10.0163043 125.827737,9.17934783 127.114599,9.17934783 C128.40146,9.17934783 129.359124,10.0163043 129.359124,11.5108696 L129.359124,28.4891304 C129.359124,29.9836957 128.40146,30.8206522 127.114599,30.8206522 C125.827737,30.8206522 124.870073,29.9836957 124.870073,28.4891304 Z M131.872993,28.4891304 L131.872993,11.5108696 C131.872993,10.0163043 132.830657,9.17934783 134.117518,9.17934783 C134.686131,9.17934783 135.613869,9.62771739 136.00292,10.1657609 L145.489781,22.8097826 L145.549635,22.8097826 L145.549635,11.5108696 C145.549635,10.0163043 146.507299,9.17934783 147.794161,9.17934783 C149.081022,9.17934783 150.038686,10.0163043 150.038686,11.5108696 L150.038686,28.4891304 C150.038686,29.9836957 149.081022,30.8206522 147.794161,30.8206522 C147.225547,30.8206522 146.327737,30.3722826 145.908759,29.8342391 L136.421898,17.3396739 L136.362044,17.3396739 L136.362044,28.4891304 C136.362044,29.9836957 135.40438,30.8206522 134.117518,30.8206522 C132.830657,30.8206522 131.872993,29.9836957 131.872993,28.4891304 Z M151.475182,27.7418478 L157.490511,11.4809783 C157.99927,10.1059783 159.166423,9 160.692701,9 C162.278832,9 163.386131,10.0461957 163.894891,11.4809783 L169.760584,27.7418478 C169.940146,28.2201087 170,28.638587 170,28.8478261 C170,30.013587 169.042336,30.8206522 167.935036,30.8206522 C166.678102,30.8206522 166.049635,30.1630435 165.750365,29.2663043 L164.852555,26.4565217 L156.532847,26.4565217 L155.635036,29.236413 C155.335766,30.1630435 154.707299,30.8206522 153.480292,30.8206522 C152.283212,30.8206522 151.265693,29.923913 151.265693,28.7282609 C151.265693,28.25 151.415328,27.8913043 151.475182,27.7418478 Z M160.662774,13.6630435 L157.819708,22.3315217 L163.505839,22.3315217 L160.722628,13.6630435 L160.662774,13.6630435 Z" id="OSCHINA" fill="#111111" fill-rule="nonzero"></path>
            </g>
        </g>
    </g>
</svg>